<svg width="307" height="307" viewBox="0 0 307 307" fill="none" xmlns="http://www.w3.org/2000/svg">
<path fill-rule="evenodd" clip-rule="evenodd" d="M281.417 255.833V166.292H255.833V255.833H51.1667V51.1667H140.708V25.5833H51.1667C37.0374 25.5833 25.5834 37.0374 25.5834 51.1667V255.833C25.5834 269.963 37.0374 281.417 51.1667 281.417H255.833C269.963 281.417 281.417 269.963 281.417 255.833ZM245.32 34.8371C239.457 28.9273 231.428 25.5833 223.053 25.5833C214.687 25.5833 206.667 28.9198 200.77 34.8525L93.7181 141.903C84.1522 150.332 77.8813 162.874 76.7916 176.363L76.75 217.488V230.28H129.638C144.148 229.285 156.813 222.952 165.748 212.646L272.194 106.245C278.1 100.34 281.417 92.3301 281.417 83.9783C281.417 75.6265 278.1 67.6167 272.194 61.7111L245.32 34.8371ZM128.735 204.728C135.569 204.245 141.93 201.064 147.038 195.222L224.579 117.68L189.348 82.4458L111.238 160.53C106.055 165.114 102.849 171.526 102.333 177.393V204.704L128.735 204.728ZM207.441 64.3585L242.67 99.5897L254.104 88.1553C255.212 87.0475 255.834 85.545 255.834 83.9783C255.834 82.4116 255.212 80.9091 254.104 79.8013L227.194 52.8917C226.099 51.7877 224.608 51.1667 223.053 51.1667C221.498 51.1667 220.007 51.7877 218.911 52.8917L207.441 64.3585Z" fill="white"/>
</svg>
