<svg xmlns="http://www.w3.org/2000/svg" viewBox="0 0 454.6 604.1"><defs><style>.cls-1{fill:#1e1c26}.cls-2{fill:#9187b6}.cls-3{fill:#62627c}.cls-4{fill:none}.cls-5{fill:#bbb2ea}.cls-6{fill:#bf5151}.cls-7{fill:#3c3c49}</style></defs><title>fibregaming-snake-no-outline</title><g id="outline"><path d="M421.1,64l-16.9,4.4,14.4,9.9,23.1,16,11.6,8v81.9l-.3,1-.5,1.6-6,18.7-1.3,4.2-3.3,3-45.4,42L381,269.1l-4.5,4.2-3,2.8.5,4.1,2.1,16.3,1.8,13.6V367l-7.2,5.1L316.1,411l-2.7,1.9-3.4,2.4v33.6l.5,1.3a364.9,364.9,0,0,1,14.6,54.4l1.2,7-4.1,5.8c-21.1,29.8-37.7,58.7-37.9,59l-3.4,6-6.7,1.9a102.9,102.9,0,0,1-10.9,2.3l2.3,3.7,2.4,3.6,5.8,9.1-14.3,9.2L249,596h0l-10.5,16.2L224.3,603l5.7-8.9,2.4-3.7,2.3-3.6c-6.6-1.1-11.4-2.4-11.8-2.5l-6.6-1.9-3.5-6h-.1c-2.9-5.1-18.6-31.8-37.7-58.8l-4.1-5.8,1.2-7a356.4,356.4,0,0,1,20.3-69.3l1.5-3.5-1.8-3.4-2.3-4,12.3-45.7,2.7-10.1H105.3l-7.1-5.8L36.3,313.2,30,308.1V241.6L57,193l3-5.3-4.4-4.3-.4-.3-2.7-2.6-39.3-38-5.2-5V81.8l.3-.4L19.6,64.7,36.9,39.2l5.4-7.8,2.1-3.2,5-1.9,7.1-2.7,25.1-9.5,6.4-.5,23.8-1.9,4.8-.4h.4l22.7-1.8,10.6-.9,6.8-.5,5.7,1.4,9,2.3,40,10,7.7,1.9h2.2L259,26.9l3.2.2h1.2l3.5-.2,35.3-2.7h.8l11.8-2,39.7-6.8h.4l16.3-3.7a115.1,115.1,0,0,1,22.5-2.2c26.9,1.4,50,9.1,68.9,22.8V58.7A173.1,173.1,0,0,0,421.1,64Z" class="cls-1" transform="translate(-8 -8.1)"/><polygon points="241.1 587.8 241 587.9 241 587.8 241.1 587.8" class="cls-1"/></g><g id="snake"><polygon points="236.6 451.6 236.6 484.8 209.4 460.8 206.9 425.6 231 417.9 231 446.2 236.6 451.6" class="cls-2"/><path d="M218.7,553l25.9-7.6v25.4a91.4,91.4,0,0,1-17-2.9S224.3,562.1,218.7,553Z" class="cls-3" transform="translate(-8 -8.1)"/><path d="M244.4,503.4,229,504.8l-19.7-20.6s-18.5,35.9,16.5,38l.5,20.2-12,3.5c-6.8-10.8-15.6-24.5-25.5-38.3a331.4,331.4,0,0,1,18.8-64.4l1.6,22.8.5,6.7,4,3.5Z" class="cls-3" transform="translate(-8 -8.1)"/><polygon points="225.5 504.3 236.6 503.3 236.6 529 226.2 532 225.5 504.3" class="cls-2"/><polygon points="236.6 495.3 236.6 495.5 236.4 495.3 236.6 495.3" class="cls-2"/><path d="M252.6,545.4l25.9,7.6c-5.6,9.1-8.9,14.9-8.9,14.9a91.4,91.4,0,0,1-17,2.9Z" class="cls-3" transform="translate(-8 -8.1)"/><polygon points="244.6 503.3 255.6 504.3 254.8 532 244.6 529 244.6 503.3" class="cls-2"/><polyline points="244.6 495.4 244.7 495.3 244.6 495.3" class="cls-4"/><polygon points="271.6 460.8 244.6 484.7 244.6 451.4 249.7 446.2 251 418.2 274.1 425.6 271.6 460.8" class="cls-2"/><path d="M308.3,507.6c-9.8,13.9-18.7,27.6-25.4,38.4l-12.2-3.6.6-20.2c35.1-2.1,16.5-38.1,16.5-38.1L268,504.8l-15.3-1.4,30.6-27.2,4.1-3.5.4-6.7,1.7-23.1A334.1,334.1,0,0,1,308.3,507.6Z" class="cls-3" transform="translate(-8 -8.1)"/><polygon points="268.3 346.8 317.3 309.2 353 324.8 353 350.2 298.3 389 298 365.2 268.3 346.8" class="cls-2"/><polygon points="296.3 313.4 257 343.5 221 348 260.7 323.5 296.3 313.4" class="cls-2"/><polygon points="211.7 370.8 244.7 360.2 239.6 396.8 201 410.5 211.7 370.8" class="cls-2"/><polygon points="255 360.2 249.7 398.8 285 411.5 285 370.8 255 360.2" class="cls-2"/><polygon points="291.7 301.5 291.7 273.5 314.3 260.2 314.3 292.8 291.7 301.5" class="cls-2"/><polygon points="324 260.2 324 292.2 353 304.2 348.3 268.2 324 260.2" class="cls-2"/><polygon points="245.7 247.5 245.7 283.8 198.3 298.3 198.3 283.5 193 263.5 245.7 247.5" class="cls-2"/><polygon points="198.3 310.8 245.7 296.3 245.7 317.5 198.3 341.5 198.3 310.8" class="cls-3"/><polygon points="183.7 286.2 183.7 298.9 103.7 304.4 103.7 294.2 125 267.8 173.7 267.8 183.7 286.2" class="cls-2"/><polygon points="103.7 316.4 183.7 310.9 183.7 319.5 178.3 343.5 113 343.5 103.7 325.5 103.7 316.4" class="cls-3"/><polygon points="89.7 322.8 100.8 341.5 39 291.8 39 279.5 89.7 315.4 89.7 322.8" class="cls-3"/><polygon points="89.7 300.7 39 264.8 39 257.5 80.3 236.2 116.7 264.2 89.7 290.7 89.7 300.7" class="cls-2"/><polygon points="39.3 238.2 66.7 224.8 89.3 173.5 71 178.8 39.3 238.2" class="cls-2"/><polygon points="97.7 178.2 78.7 222.5 121 243.2 121 192.8 97.7 178.2" class="cls-2"/><polygon points="164.3 169.5 164.3 183.2 132.3 200.6 132.3 187.5 103.7 169.5 143.7 150.8 164.3 169.5" class="cls-2"/><polygon points="132.3 214.3 164.3 196.9 164.3 208.2 132.3 226.2 132.3 214.3" class="cls-3"/><polygon points="233 178.2 233 191.2 177.7 191.6 177.7 179.8 166.3 150.8 220.3 150.8 233 178.2" class="cls-2"/><polygon points="177.7 203.6 233 203.2 233 216.2 177.7 214.2 177.7 203.6" class="cls-3"/><polygon points="296.3 188.5 296.3 202.5 245.7 192.8 245.7 178.2 235 151.8 285 165.5 296.3 188.5" class="cls-2"/><polygon points="245.7 205 296.3 214.7 296.3 233.5 245.7 223.5 245.7 205" class="cls-3"/><polygon points="370 183.5 370 192.8 312.7 200.8 312.7 187.5 304 168.8 354 164.2 370 183.5" class="cls-2"/><polygon points="312.7 212.9 370 204.9 370 213.5 364 236.2 312.7 236.2 312.7 212.9" class="cls-3"/><polygon points="384.3 201.3 426.4 179.3 422.3 192.2 377 234.2 384.3 211.5 384.3 201.3" class="cls-3"/><polygon points="428.3 156.5 428.3 164.8 384.3 187.7 384.3 178.2 363 160.2 391.3 138.2 428.3 156.5" class="cls-2"/><polygon points="395.7 124.5 428.3 140.2 428.3 110.8 395.7 104.2 395.7 124.5" class="cls-2"/><polygon points="387 104.8 387 124.8 357 148.8 357 121.2 387 104.8" class="cls-2"/><polygon points="364.3 76.8 389.5 94 424 100.2 390.2 76.8 364.3 76.8" class="cls-2"/><polygon points="337 128.7 348 135.9 348 141.8 337 136.5 337 128.7" class="cls-3"/><polygon points="379.7 98.2 348 115.2 348 121.6 337 114.4 337 107.8 356 82.5 379.7 98.2" class="cls-2"/><polygon points="255 295.8 282.2 305.9 255 313.4 255 295.8" class="cls-3"/><polygon points="303 256.2 283 267.2 283 293.4 255 283 255 267.8 257.7 247.5 303 256.2" class="cls-2"/><polygon points="303 112 323 119.6 323 129.5 303 122.2 303 112" class="cls-3"/><polygon points="341.7 70.8 323 96.8 323 106.8 303 99.1 303 88.5 310.7 62.2 341.7 70.8" class="cls-2"/><polygon points="255 119.3 288.3 109.4 288.3 118.2 255 133.5 255 119.3" class="cls-3"/><polygon points="296.3 62.2 288.3 88.5 288.3 96.9 255 106.8 255 95.8 242 76.8 296.3 62.2" class="cls-2"/><polygon points="237.7 100.2 237.7 110 197 121.5 197 112.2 187 91.5 223.3 82.5 237.7 100.2" class="cls-2"/><polygon points="197 133.9 237.7 122.5 237.7 140.2 197 140.2 197 133.9" class="cls-3"/><polygon points="183.7 112.2 183.7 121.2 132.3 127.9 131 118 134 100.2 177 95.8 183.7 112.2" class="cls-2"/><polygon points="134 139.8 183.7 133.3 183.7 140.2 134 140.2 134 139.8" class="cls-3"/><polygon points="67 136.5 111.7 141.9 111.7 148.8 67 164.2 67 136.5" class="cls-3"/><polygon points="116.7 104.2 111.7 122.2 111.7 129.8 67 124.4 67 114.8 83.7 97.8 116.7 104.2" class="cls-2"/><polygon points="17 114.5 56.3 142.9 56.3 160.2 17 122.2 17 114.5" class="cls-3"/><polygon points="77.8 88.5 56.3 112.2 56.3 128.1 17 99.7 17 85.5 62.7 64.2 77.8 88.5" class="cls-2"/><polygon points="25.7 66.2 64.3 51.5 84.3 20.2 47.4 34.2 25.7 66.2" class="cls-2"/><polygon points="95 20.2 75 53.5 111.7 68.2 111.7 89.5 125 63.2 125 39.5 95 20.2" class="cls-2"/><polygon points="157.3 34.8 157.3 43.3 134 43.3 134 35.5 110.3 20.2 143.7 17.5 157.3 34.8" class="cls-2"/><rect width="23.3" height="17.5" x="134" y="55.3" class="cls-3"/><polygon points="309.7 30.8 316 51.3 353 55.2 367 51.5 367 36.2 353 23.5 309.7 30.8" class="cls-2"/><path d="M450.3,43.8c-34-.5-63.6,13.6-63.6,13.6V39.2l-8.2-7.6h0L375,28.2h0c1.1-.2,41.7-8.9,75.3,15.6Z" class="cls-2" transform="translate(-8 -8.1)"/><polygon points="199.7 30.2 199.7 50.4 170.3 44.4 170.3 33.7 159.7 20.2 199.7 30.2" class="cls-2"/><polygon points="170.3 56.7 199.7 62.7 199.7 76.8 170.3 72.8 170.3 56.7" class="cls-3"/><polygon points="212.3 32.8 212.3 73.8 252.7 63.2 252.7 48.5 249.7 35.7 212.3 32.8" class="cls-2"/><polygon points="260.2 35.7 263 46.5 263 60.2 304 49 299.3 32.8 260.2 35.7" class="cls-2"/><polygon points="100 76.8 100 91.5 88.3 88.5 75 66.2 100 76.8" class="cls-2"/><polygon points="99.9 308 99.8 308.2 99.8 307.9 99.9 308" class="cls-1"/><polygon points="99.9 308 99.8 308.2 99.8 307.9 99.9 308" class="cls-1"/><polygon points="328.6 118.1 327.4 121.3 326.7 121 328.6 118.1" class="cls-1"/><polygon points="328.6 118.1 327.4 121.3 326.7 121 328.6 118.1" class="cls-1"/><polygon points="121 192.8 106.7 236.2 121 243.2 121 192.8" class="cls-3"/><polygon points="17 85.5 56.3 112.2 56.3 128.1 17 99.7 17 85.5" class="cls-3"/><polygon points="125 39.5 111.7 68.2 111.7 89.5 125 63.2 125 39.5" class="cls-3"/><polygon points="67 114.8 111.7 122.2 111.7 129.8 67 124.4 67 114.8" class="cls-3"/><polygon points="132.3 187.5 132.3 200.6 164.3 183.2 164.3 169.5 132.3 187.5" class="cls-3"/><polygon points="177.7 179.8 233 178.2 233 191.2 177.7 191.6 177.7 179.8" class="cls-3"/><polygon points="245.7 178.2 296.3 188.5 296.3 202.5 245.7 192.8 245.7 178.2" class="cls-3"/><polygon points="312.7 187.5 312.7 200.8 370 192.8 370 183.5 312.7 187.5" class="cls-3"/><polygon points="384.3 178.2 428.3 156.5 428.3 164.8 384.3 187.7 384.3 178.2" class="cls-3"/><polygon points="337 107.8 348 115.2 348 121.6 337 114.4 337 107.8" class="cls-3"/><polygon points="323 96.8 303 88.5 303 99.1 323 106.8 323 96.8" class="cls-3"/><polygon points="288.3 88.5 255 95.8 255 106.8 288.3 96.9 288.3 88.5" class="cls-3"/><polygon points="237.7 100.2 197 112.2 197 121.5 237.7 110 237.7 100.2" class="cls-3"/><polygon points="183.7 112.2 131 118 132.3 127.9 183.7 121.2 183.7 112.2" class="cls-3"/><polygon points="39 257.5 89.7 290.7 89.7 300.7 39 264.8 39 257.5" class="cls-3"/><polygon points="103.7 294.2 183.7 286.2 183.7 298.9 103.7 304.4 103.7 294.2" class="cls-3"/><polygon points="198.3 283.5 245.7 270.4 245.7 283.8 198.3 298.3 198.3 283.5" class="cls-3"/><polygon points="255 267.8 283 276.7 283 293.4 255 283 255 267.8" class="cls-3"/><polygon points="298 365.2 353 324.8 353 350.2 298.3 389 298 365.2" class="cls-3"/><polygon points="134 35.5 157.3 34.8 157.3 43.3 134 43.3 134 35.5" class="cls-3"/><polygon points="170.3 33.7 199.7 40.8 199.7 50.4 170.3 44.4 170.3 33.7" class="cls-3"/><polygon points="212.3 46.5 252.7 48.5 252.7 63.2 212.3 73.8 212.3 46.5" class="cls-3"/><polygon points="263 46.5 302.4 43.3 304 49 263 60.2 263 46.5" class="cls-3"/><polygon points="314.3 45.9 367 36.2 367 51.5 353 55.2 316 51.3 314.3 45.9" class="cls-3"/><path d="M450.3,43.8h-.1c-34-.5-63.5,13.6-63.5,13.6V39.2c27.8-4.1,60.9,3.9,63.5,4.6h.1Z" class="cls-3" transform="translate(-8 -8.1)"/><polygon points="258.7 402.1 263.5 363.2 255 360.2 249.7 398.8 258.7 402.1" class="cls-5"/><polygon points="244.7 360.2 239.6 396.8 228.8 400.6 235 363.3 244.7 360.2" class="cls-5"/><polygon points="268.3 346.8 317.3 309.2 325.5 312.7 276.4 351.8 268.3 346.8" class="cls-5"/><polygon points="296.3 313.4 257 343.5 242 345.4 281.2 317.7 296.3 313.4" class="cls-5"/><polygon points="324 292.2 324 260.2 333.6 263.3 332.8 295.8 324 292.2" class="cls-5"/><polygon points="314.3 260.2 314.3 292.8 305.2 296.3 305.2 265.5 314.3 260.2" class="cls-5"/><polygon points="257.7 247.5 303 256.2 293.3 261.5 256.6 255.8 257.7 247.5" class="cls-5"/><polygon points="245.7 247.5 193 263.5 195.3 272.1 245.7 256.2 245.7 247.5" class="cls-5"/><polygon points="173.7 267.8 177.7 275.2 119.1 275.2 125 267.8 173.7 267.8" class="cls-5"/><polygon points="80.3 236.2 116.7 264.2 110.3 270.4 71.6 240.7 80.3 236.2" class="cls-5"/><polygon points="78.7 222.5 97.7 178.2 106.1 183.5 88.2 227.1 78.7 222.5" class="cls-5"/><polygon points="89.3 173.5 66.7 224.8 55 230.5 79.9 176.2 89.3 173.5" class="cls-5"/><polygon points="103.7 169.5 111.7 174.5 150.3 156.9 143.7 150.8 103.7 169.5" class="cls-5"/><polygon points="166.3 150.8 220.3 150.8 224 158.8 169.5 158.8 166.3 150.8" class="cls-5"/><polygon points="235 151.8 285 165.5 289.4 174.5 238.5 160.4 235 151.8" class="cls-5"/><polygon points="304 168.8 354 164.2 359.9 171.2 307.9 177.2 304 168.8" class="cls-5"/><polygon points="363 160.2 370 166.1 399.9 142.4 391.3 138.2 363 160.2" class="cls-5"/><polygon points="387 104.8 387 124.8 379.6 130.7 378.6 109.4 387 104.8" class="cls-5"/><polygon points="395.7 104.2 404.7 106 404.7 128.8 395.7 124.5 395.7 104.2" class="cls-5"/><polygon points="356 82.5 379.7 98.2 372 102.3 350.7 89.5 356 82.5" class="cls-5"/><polygon points="364.3 76.8 377 76.8 404.7 96.7 389.5 94 364.3 76.8" class="cls-5"/><polygon points="341.7 70.8 335.9 78.8 308.1 70.8 310.7 62.2 341.7 70.8" class="cls-5"/><polygon points="296.3 62.2 293.8 70.5 247.2 84.5 242 76.8 296.3 62.2" class="cls-5"/><polygon points="223.3 82.5 229 89.5 191.2 100.2 187 91.5 223.3 82.5" class="cls-5"/><polygon points="177 95.8 180.4 104.2 132.7 107.8 134 100.2 177 95.8" class="cls-5"/><polygon points="116.7 104.2 114.4 112.2 77.5 104.2 83.7 97.8 116.7 104.2" class="cls-5"/><polygon points="62.7 64.2 77.8 88.5 71.6 95.4 53.1 68.6 62.7 64.2" class="cls-5"/><polygon points="75 66.2 85.2 70.5 100 91.5 88.3 88.5 75 66.2" class="cls-5"/><polygon points="75 53.5 95 20.2 102.5 25 84.3 57.2 75 53.5" class="cls-5"/><polygon points="84.3 20.2 64.3 51.5 53.1 55.8 72.2 24.8 84.3 20.2" class="cls-5"/><polygon points="110.3 20.2 143.7 17.5 148.4 23.5 121 27.1 110.3 20.2" class="cls-5"/><polygon points="159.7 20.2 199.7 30.2 199.7 34.8 164.3 26.1 159.7 20.2" class="cls-5"/><polygon points="212.3 32.8 249.7 35.7 250.5 39.5 212.3 38 212.3 32.8" class="cls-5"/><polygon points="260.2 35.7 299.3 32.8 300.7 37.5 261.2 39.5 260.2 35.7" class="cls-5"/><polygon points="309.7 30.8 353 23.5 357.4 27.5 311.3 36.2 309.7 30.8" class="cls-5"/><path d="M450.3,43.8c-1.8-1.1-36-18.2-71.8-12.2L375,28.2h0C376.1,28,416.7,19.3,450.3,43.8Z" class="cls-5" transform="translate(-8 -8.1)"/><line x1="244.6" x2="244.6" y1="495.4" y2="495.3" class="cls-4"/><polyline points="244.6 495.3 244.7 495.3 244.6 495.4" class="cls-4"/><polyline points="244.6 495.3 244.7 495.3 244.6 495.4" class="cls-4"/><polygon points="236.6 495.3 236.6 495.5 236.4 495.3 236.6 495.3" class="cls-1"/><polygon points="236.6 495.3 236.6 495.5 236.4 495.3 236.6 495.3" class="cls-1"/><polygon points="231 417.9 222.8 420.5 222.8 449.3 236.7 463.2 236.6 451.6 231 446.2 231 417.9" class="cls-5"/><polygon points="251 418.2 259.3 420.8 258.7 449.3 244.6 463.2 244.6 451.4 249.7 446.2 251 418.2" class="cls-5"/><path d="M215.6,502.4l7.4,8C220,516.2,210,510.4,215.6,502.4Z" class="cls-6" transform="translate(-8 -8.1)"/><path d="M281.3,502.4l-7.3,8C277,516.2,287,510.4,281.3,502.4Z" class="cls-6" transform="translate(-8 -8.1)"/><polygon points="370 213.5 313 224.2 312.7 236.2 364 236.2 370 213.5" class="cls-7"/><polygon points="422.3 192.2 384.3 211.5 377 234.2 422.3 192.2" class="cls-7"/><polygon points="296.3 226.2 245.7 214.2 245.7 223.5 296.3 233.5 296.3 226.2" class="cls-7"/><polygon points="111.7 148.8 67 144.8 67 164.2 111.7 148.8" class="cls-7"/><polygon points="237.7 131.3 197 140.2 237.7 140.2 237.7 131.3" class="cls-7"/><polygon points="255 126.8 288.3 118.2 255 133.5 255 126.8" class="cls-7"/><polygon points="103.7 325.5 183.7 319.5 178.3 343.5 113 343.5 103.7 325.5" class="cls-7"/><polygon points="89.7 322.8 39 291.8 100.8 341.5 89.7 322.8" class="cls-7"/><polygon points="198.3 319.5 245.7 304.6 245.7 317.5 198.3 341.5 198.3 319.5" class="cls-7"/><polygon points="255 304.6 269.2 309.5 255 313.4 255 304.6" class="cls-7"/><polygon points="353 338.2 298.1 377.5 298.3 389 353 350.2 353 338.2" class="cls-7"/><polygon points="134 64.2 157.3 64.5 157.3 72.8 134 72.8 134 64.2" class="cls-7"/><polygon points="170.3 66.2 199.7 70.5 199.7 76.8 170.3 72.8 170.3 66.2" class="cls-7"/><polygon points="252.7 63.2 212.3 66.2 212.3 73.8 252.7 63.2" class="cls-7"/><polygon points="367 45.7 337 53.5 353 55.2 367 51.5 367 45.7" class="cls-7"/><path d="M450.3,43.8h-.1c-34-.5-63.5,13.6-63.5,13.6V50.2s24.8-9.1,63.5-6.4h.1Z" class="cls-7" transform="translate(-8 -8.1)"/></g></svg>